<svg xmlns="http://www.w3.org/2000/svg" xmlns:xlink="http://www.w3.org/1999/xlink" width="19" height="20" viewBox="0 0 19 20"><defs><path id="a" d="M695.21 298.32a8.3 8.3 0 0 1 2.43 5.9 8.32 8.32 0 0 1-8.3 8.35 8.35 8.35 0 0 1-5.88-14.24 8.26 8.26 0 0 1 11.75 0zm-3.6 12.82c.72-.25 1.39-.6 2-1.04a7.77 7.77 0 0 0-1.18-1.52 9.86 9.86 0 0 0-.7-.64c-.26-.2-.5-.4-.73-.6-.5.34-1.05.51-1.66.53a3.05 3.05 0 0 1-1.68-.52l-.72.6a9.83 9.83 0 0 0-1.43 1.47c-.2.26-.35.49-.46.68.61.44 1.28.8 2 1.04a6.93 6.93 0 0 0 4.56 0zm-4.1-5.3c.49.64 1.1.97 1.83 1a2.31 2.31 0 0 0 1.83-1c.48-.64.74-1.44.76-2.4a4.05 4.05 0 0 0-.76-2.4 2.3 2.3 0 0 0-1.83-1c-.74.03-1.36.36-1.84 1a4.01 4.01 0 0 0-.77 2.4c.02.96.28 1.76.77 2.4zm8.48 1.28a7.29 7.29 0 0 0-1.53-8.05 7.23 7.23 0 0 0-10.26 0 7.28 7.28 0 0 0 .09 10.4 6.24 6.24 0 0 1 1.18-1.57 15.6 15.6 0 0 1 1.41-1.22c-.36-.4-.65-.88-.86-1.43a5.04 5.04 0 0 1-.32-1.8 4.9 4.9 0 0 1 1.06-3.13 3.35 3.35 0 0 1 2.58-1.3c1.02.03 1.87.46 2.56 1.3a4.9 4.9 0 0 1 1.06 3.13c0 .64-.1 1.24-.32 1.8-.2.55-.5 1.03-.86 1.43a51.7 51.7 0 0 1 1.41 1.22 6.28 6.28 0 0 1 1.18 1.57 7.58 7.58 0 0 0 1.62-2.35z"/></defs><g transform="translate(-680 -294)"><use fill="#d0d0d0" xlink:href="#a"/></g></svg>