<svg xmlns="http://www.w3.org/2000/svg" xmlns:xlink="http://www.w3.org/1999/xlink" width="22" height="20" viewBox="0 0 22 20"><defs><path id="a" d="M1020.53 512.85v7.65a.5.5 0 0 1-.5.5h-4.7a.5.5 0 0 1-.51-.5v-2.91h-1.64v2.9a.5.5 0 0 1-.5.51h-4.72a.5.5 0 0 1-.5-.5v-7.41c0-.28.23-.5.5-.5.3 0 .52.22.52.5v6.89h3.67v-2.91c0-.28.23-.52.53-.52h2.66c.27 0 .5.24.5.52v2.9h3.67v-7.12c0-.3.23-.52.52-.52.28 0 .5.23.5.52zm2.32.63a.57.57 0 0 1-.36.13.5.5 0 0 1-.37-.13l-8.11-8.23-8.14 8.15c-.2.2-.52.22-.71 0-.22-.19-.2-.52 0-.72l8.48-8.52c.1-.1.22-.16.37-.16a.5.5 0 0 1 .34.16l3.38 3.41v-1.78c0-.3.23-.52.5-.52.3 0 .53.23.53.52v2.82l4.1 4.13c.2.2.18.55 0 .74z"/></defs><g transform="translate(-1003 -502)"><use fill="#d3d3d3" xlink:href="#a"/></g></svg>