<svg xmlns="http://www.w3.org/2000/svg" xmlns:xlink="http://www.w3.org/1999/xlink" width="19" height="19" viewBox="0 0 19 19"><defs><path id="a" d="M684 614h1v-3c0-1.1.9-2 2-2h6a2 2 0 0 1 2 2v3h1a2 2 0 0 1 2 2v7a2 2 0 0 1-2 2h-12a2 2 0 0 1-2-2v-7c0-1.1.9-2 2-2zm-1 2v7a1 1 0 0 0 1 1h12a1 1 0 0 0 1-1v-7a1 1 0 0 0-1-1h-12a1 1 0 0 0-1 1zm3-5v3h8v-3a1 1 0 0 0-1-1h-6a1 1 0 0 0-1 1zm4 6a2 2 0 1 1 0 4 2 2 0 0 1 0-4zm-1 2a1 1 0 1 0 2 0 1 1 0 0 0-2 0z"/></defs><g transform="translate(-680 -607)"><use fill="#d0d0d0" xlink:href="#a"/></g></svg>