<svg xmlns="http://www.w3.org/2000/svg" xmlns:xlink="http://www.w3.org/1999/xlink" width="19" height="15" viewBox="0 0 19 15"><defs><path id="a" d="M1007 402h12a2 2 0 0 1 2 2v8a2 2 0 0 1-2 2h-12a2 2 0 0 1-2-2v-8c0-1.1.9-2 2-2zm-1 2v8a1 1 0 0 0 1 1h12a1 1 0 0 0 1-1v-8a1 1 0 0 0-.04-.26l-6.26 6.26-.67-.66-.7.7-6.3-6.3a1 1 0 0 0-.03.26zm13-1h-12a1 1 0 0 0-.26.03l6.26 6.27 6.26-6.26a1 1 0 0 0-.26-.04zm-12.5.13a1 1 0 0 0-.37.38zm13.42.49a1 1 0 0 0-.54-.54z"/></defs><g transform="translate(-1003 -400)"><use fill="#d0d0d0" xlink:href="#a"/></g></svg>