<svg xmlns="http://www.w3.org/2000/svg" xmlns:xlink="http://www.w3.org/1999/xlink" width="19" height="20" viewBox="0 0 19 20"><defs><path id="a" d="M691.4 400.14c.71.62 1.11 1.2 1.21 1.74v.04a9.01 9.01 0 0 1-1.74 4.43 27.82 27.82 0 0 1-3.39 4.03 27.4 27.4 0 0 1-4.02 3.4 9 9 0 0 1-4.43 1.74c-.56-.1-1.14-.5-1.75-1.2-.62-.72-.95-1.13-1-1.25a1.4 1.4 0 0 1-.27-.82c0-.18.03-.34.1-.5a.87.87 0 0 1 .28-.35l1.64-1.12c.87-.58 1.43-.95 1.7-1.11a1 1 0 0 1 .61-.15c.23.02.48.1.73.23.16.08.39.2.7.38l.78.45a27.14 27.14 0 0 0 2.46-2.18 24.64 24.64 0 0 0 2.17-2.45l-.45-.8-.38-.68a1.74 1.74 0 0 1-.21-.8c0-.2.04-.38.13-.54.17-.26.54-.84 1.13-1.71l1.11-1.67a1 1 0 0 1 .7-.38c.3-.05.63.04.96.26.11.06.52.4 1.23 1.01zm-1.14 5.24a7.38 7.38 0 0 0 1.3-3.45c-.08-.2-.32-.49-.7-.86-.38-.38-.81-.75-1.29-1.1-.12-.07-.2-.1-.25-.07l-1.1 1.62c-.53.8-.88 1.34-1.05 1.63-.02.04.02.15.1.33l.8 1.45.34.57-.38.55a26.35 26.35 0 0 1-2.28 2.6c-.66.65-1.21 1.17-1.65 1.53-.44.37-.75.62-.95.75l-.53.37-.59-.32-1.44-.81c-.17-.08-.28-.12-.33-.1a466.8 466.8 0 0 1-3.24 2.15v.03c0 .09.02.17.06.23.36.47.72.9 1.1 1.28.38.38.67.62.86.7a7.37 7.37 0 0 0 3.45-1.3c1.31-.83 2.73-2 4.26-3.53a25.32 25.32 0 0 0 3.51-4.25z"/></defs><g transform="translate(-675 -397)"><use fill="#d0d0d0" xlink:href="#a"/></g></svg>