<svg xmlns="http://www.w3.org/2000/svg" xmlns:xlink="http://www.w3.org/1999/xlink" width="20" height="20" viewBox="0 0 20 20"><defs><path id="a" d="M169 496v5h-1v3c0 .95-.73 2-1.68 2h-13.5c-.96 0-1.82-1.05-1.82-2v-12c0-.95 1.05-2 2-2h5l4.54-1.87a1.04 1.04 0 0 1 1.41.4L165 490h1c.95 0 2.05 1.46 2.05 2.41L168 496zm-4-5l1 1h1c-.06-.52-.47-1-1-1zm-8 1h8l-2-3c.54-.04.16-.1 0 0zm10 12v-3h-5v-5h5v-3h-13l-.97-.01a.35.35 0 0 1-.34-.35c0-.19.12-.64.31-.64h2l2-1h-4c-.57 0-1 .43-1 1v12c0 .57.43 1 1 1h14c.23-.22 0-.43 0-1zm1-7h-5v3h5z"/></defs><g transform="translate(-150 -487)"><use fill="#d3d3d3" xlink:href="#a"/></g></svg>